#N canvas 249 111 1060 457 10;
#X obj 132 35 bng 50 250 50 0 empty empty start 53 7 0 10 -4034 -1
-1;
#X obj 64 35 loadbang;
#X obj 273 215 r oscmsg;
#X obj 273 237 packOSC;
#X obj 243 301 udpsend;
#X obj 132 104 t b b;
#X obj 38 222 random 10000;
#X obj 38 266 s oscmsg;
#X obj 323 301 udpsend;
#X obj 352 35 bng 50 250 50 0 empty empty stop 53 7 0 10 -258113 -1
-1;
#X msg 386 200 disconnect;
#X msg 85 176 stop;
#X msg 213 164 connect 127.0.0.1 23000;
#X msg 281 137 connect 127.0.0.1 23001;
#X msg 38 244 send /pd \$1 \$1;
#X obj 560 110 vsl 15 128 -1 1 0 0 empty empty empty 0 -9 0 10 -4034
-1 -1 5900 1;
#X obj 554 35 loadbang;
#X msg 554 57 0;
#X obj 540 361 pack \$1 \$2 \$3;
#X obj 539 405 s oscmsg;
#X msg 540 383 send /pm/pos \$1 \$2 \$3;
#X obj 580 110 vsl 15 128 -1 1 0 0 empty empty empty 0 -9 0 10 -4032
-1 -1 6350 1;
#X obj 540 271 t f b b;
#X obj 600 271 t b f b;
#X obj 660 271 t b b f;
#X obj 540 110 vsl 15 128 -1 1 0 0 empty empty empty 0 -9 0 10 -258113
-1 -1 3300 1;
#X obj 540 322 f;
#X obj 600 322 f;
#X obj 660 322 f;
#X obj 815 36 tgl 15 0 empty empty empty 17 7 0 10 -262144 -1 -1 1
1;
#X obj 815 168 f;
#X obj 815 241 cos;
#X obj 895 241 sin;
#X obj 815 212 t f b f;
#X obj 815 361 pack \$1 \$2 \$3;
#X msg 815 383 send /pm/pos \$1 \$2 \$3;
#X msg 855 241 0;
#X obj 815 405 s oscmsg;
#X obj 815 263 * 2;
#X obj 895 263 * 2;
#X obj 815 56 metro 30;
#X text 607 114 XYZ position of the logo;
#X text 834 36 circular motion of the logo;
#X obj 38 200 metro 5;
#X obj 844 168 + 0.01;
#X obj 898 81 vsl 15 100 0 0.5 0 0 empty empty speed 0 -9 0 10 -4032
-1 -1 4300 1;
#X connect 0 0 5 0;
#X connect 1 0 5 0;
#X connect 2 0 3 0;
#X connect 3 0 4 0;
#X connect 3 0 8 0;
#X connect 5 0 43 0;
#X connect 5 1 12 0;
#X connect 5 1 13 0;
#X connect 6 0 14 0;
#X connect 9 0 10 0;
#X connect 9 0 11 0;
#X connect 10 0 8 0;
#X connect 10 0 4 0;
#X connect 11 0 43 0;
#X connect 12 0 4 0;
#X connect 13 0 8 0;
#X connect 14 0 7 0;
#X connect 15 0 23 0;
#X connect 16 0 17 0;
#X connect 17 0 15 0;
#X connect 17 0 21 0;
#X connect 17 0 25 0;
#X connect 18 0 20 0;
#X connect 20 0 19 0;
#X connect 21 0 24 0;
#X connect 22 0 26 0;
#X connect 22 1 27 0;
#X connect 22 2 28 0;
#X connect 23 0 26 0;
#X connect 23 1 27 0;
#X connect 23 2 28 0;
#X connect 24 0 26 0;
#X connect 24 1 27 0;
#X connect 24 2 28 0;
#X connect 25 0 22 0;
#X connect 26 0 18 0;
#X connect 27 0 18 1;
#X connect 28 0 18 2;
#X connect 29 0 40 0;
#X connect 30 0 44 0;
#X connect 30 0 33 0;
#X connect 31 0 38 0;
#X connect 32 0 39 0;
#X connect 33 0 31 0;
#X connect 33 1 36 0;
#X connect 33 2 32 0;
#X connect 34 0 35 0;
#X connect 35 0 37 0;
#X connect 36 0 34 1;
#X connect 38 0 34 0;
#X connect 39 0 34 2;
#X connect 40 0 30 0;
#X connect 43 0 6 0;
#X connect 44 0 30 1;
#X connect 45 0 44 1;
