#N canvas 587 89 950 512 10;
#X obj 132 35 bng 50 250 50 0 empty empty start 17 7 0 10 -4034 -1
-1;
#X obj 184 35 loadbang;
#X obj 273 212 r oscmsg;
#X obj 273 234 packOSC;
#X obj 235 390 udpsend;
#X obj 132 101 t b b;
#X obj 38 222 random 10000;
#X obj 38 266 s oscmsg;
#X obj 315 390 udpsend;
#X obj 352 35 bng 50 250 50 0 empty empty stop 17 7 0 10 -258113 -1
-1;
#X msg 386 197 disconnect;
#X msg 85 176 stop;
#X msg 213 161 connect 127.0.0.1 23000;
#X msg 281 134 connect 127.0.0.1 23001;
#X msg 38 244 send /pd \$1 \$1;
#X obj 38 200 metro 100;
#X obj 620 110 vsl 15 128 -1 1 0 0 empty empty empty 0 -9 0 10 -4034
-1 -1 5100 1;
#X obj 784 35 loadbang;
#X msg 784 57 0;
#X obj 600 361 pack \$1 \$2 \$3;
#X obj 600 405 s oscmsg;
#X msg 600 383 send /pm/pos \$1 \$2 \$3;
#X obj 640 110 vsl 15 128 -1 1 0 0 empty empty empty 0 -9 0 10 -4032
-1 -1 4100 1;
#X obj 600 271 t f b b;
#X obj 660 271 t b f b;
#X obj 720 271 t b b f;
#X obj 600 110 vsl 15 128 -1 1 0 0 empty empty empty 0 -9 0 10 -258113
-1 -1 5800 1;
#X obj 600 322 f;
#X obj 660 322 f;
#X obj 720 322 f;
#X connect 0 0 5 0;
#X connect 1 0 5 0;
#X connect 2 0 3 0;
#X connect 3 0 4 0;
#X connect 3 0 8 0;
#X connect 5 0 15 0;
#X connect 5 1 12 0;
#X connect 5 1 13 0;
#X connect 6 0 14 0;
#X connect 9 0 10 0;
#X connect 9 0 11 0;
#X connect 10 0 8 0;
#X connect 10 0 4 0;
#X connect 11 0 15 0;
#X connect 12 0 4 0;
#X connect 13 0 8 0;
#X connect 14 0 7 0;
#X connect 15 0 6 0;
#X connect 16 0 24 0;
#X connect 17 0 18 0;
#X connect 18 0 16 0;
#X connect 18 0 22 0;
#X connect 18 0 26 0;
#X connect 19 0 21 0;
#X connect 21 0 20 0;
#X connect 22 0 25 0;
#X connect 23 0 27 0;
#X connect 23 1 28 0;
#X connect 23 2 29 0;
#X connect 24 0 27 0;
#X connect 24 1 28 0;
#X connect 24 2 29 0;
#X connect 25 0 27 0;
#X connect 25 1 28 0;
#X connect 25 2 29 0;
#X connect 26 0 23 0;
#X connect 27 0 19 0;
#X connect 28 0 19 1;
#X connect 29 0 19 2;
